<svg width="1440" height="320" xmlns="http://www.w3.org/2000/svg">
 <!-- Created with Method Draw - http://github.com/duopixel/Method-Draw/ -->

 <g>
  <title>background</title>
  <rect fill="#fff" id="canvas_background" height="322" width="1442" y="-1" x="-1"/>
  <g display="none" overflow="visible" y="0" x="0" height="100%" width="100%" id="canvasGrid">
   <rect fill="url(#gridpattern)" stroke-width="0" y="0" x="0" height="100%" width="100%"/>
  </g>
 </g>
 <g>
  <title>Layer 1</title>
  <g stroke="null" transform="rotate(-180 718.5000610351562,159.49986267089844) " id="svg_5">
   <path stroke="null" id="svg_4" d="m-1.88892,240.88279l34.31853,6.34858c34.31853,6.82772 102.75548,18.80617 171.79276,-19.16552c68.3369,-38.6904 137.07402,-127.33095 205.11075,-178.83829c69.03728,-51.50734 138.07456,-63.4858 206.11129,-25.5141c68.73712,38.6904 137.07402,127.33095 206.11129,127.6903c68.43695,-0.35935 137.07402,-88.9999 206.11129,-95.82762c68.13679,-6.34858 137.07402,70.31351 205.11075,76.66209c68.93722,6.82772 137.07402,-57.85592 172.09292,-89.35925l34.01837,-31.98247l0,306.64838l-34.31853,0c-34.31853,0 -102.75548,0 -171.79276,0c-68.3369,0 -137.07402,0 -205.11075,0c-69.03728,0 -138.07456,0 -206.11129,0c-68.73712,0 -137.07402,0 -206.11129,0c-68.43695,0 -137.07402,0 -206.11129,0c-68.13679,0 -137.07402,0 -205.11075,0c-68.93722,0 -137.07402,0 -172.09292,0l-34.01837,0l0,-76.66209z" fill="#00cba9"/>
  </g>
  <text font-weight="bold" stroke="#000" transform="matrix(3.518935418704521,0,0,3.6709486456530076,-795.5936454588057,-47.32761944218913) " xml:space="preserve" text-anchor="start" font-family="sans-serif" font-size="24" id="svg_6" y="47.06919" x="373.92394" stroke-width="0" fill="#000000">рдирдорд╕реНрддреЗ ЁЯЩП</text>
 </g>
</svg>